<?xml version="1.0" standalone="no"?>
<!DOCTYPE svg PUBLIC "-//W3C//DTD SVG 1.1//EN" "http://www.w3.org/Graphics/SVG/1.1/DTD/svg11.dtd" >
<svg xmlns="http://www.w3.org/2000/svg">
<metadata></metadata>
<defs>
<font id="astroregular" horiz-adv-x="2048" >
<font-face units-per-em="2048" ascent="1638" descent="-410" />
<missing-glyph horiz-adv-x="749" />
<glyph />
<glyph />
<glyph unicode="&#xd;" horiz-adv-x="749" />
<glyph unicode=" "  horiz-adv-x="749" />
<glyph unicode="&#x09;" horiz-adv-x="749" />
<glyph unicode="&#xa0;" horiz-adv-x="749" />
<glyph unicode="!" horiz-adv-x="1114" d="M59 360q0 137 98.5 235.5t235.5 98.5q141 0 217 -84l404 404l59 -60l-405 -405q57 -100 57 -189q0 -137 -97.5 -234t-234.5 -97t-235.5 97t-98.5 234zM158 360q0 -94 69.5 -162.5t165.5 -68.5t165 67.5t69 163.5t-69 166t-165 70t-165.5 -69.5t-69.5 -166.5z" />
<glyph unicode="&#x22;" horiz-adv-x="1286" d="M59 258q0 113 80 191.5t195 80.5q98 0 176 -63l197 162q-39 66 -39 139q0 115 81.5 195.5t194.5 80.5q115 0 197 -81.5t82 -194.5t-82 -194.5t-197 -81.5q-98 0 -178 63l-193 -162q37 -57 37 -135q0 -115 -80.5 -196.5t-193.5 -81.5t-195 81.5t-82 196.5zM154 258 q0 -76 53 -129t129 -53t128 53t52 129t-53 128t-129 52q-74 0 -127 -52t-53 -128zM764 768q0 -76 52 -128t128 -52t130 52t54 128t-54 129t-130 53t-128 -53t-52 -129z" />
<glyph unicode="#" horiz-adv-x="1026" d="M68 51v901h895v-901h-895zM162 145h704v715h-704v-715z" />
<glyph unicode="$" horiz-adv-x="1218" d="M59 45l549 948l551 -948h-1100zM225 139h768l-385 662z" />
<glyph unicode="%" horiz-adv-x="1214" d="M59 96v94h439l-439 752h111l436 -752l438 752h107l-434 -752h438v-94h-1096z" />
<glyph unicode="&#x26;" horiz-adv-x="1214" d="M59 98l439 752h-439v94h1096v-94h-438l434 -752h-107l-438 752l-436 -752h-111z" />
<glyph unicode="'" horiz-adv-x="1026" d="M59 475v94h349l-246 246l67 68l246 -246v348h94v-348l246 246l68 -68l-246 -246h348v-94h-348l246 -246l-68 -67l-246 246v-349h-94v349l-246 -246l-67 67l246 246h-349z" />
<glyph unicode="(" horiz-adv-x="1249" d="M59 59l535 926h111l-480 -831h965v-95h-1131z" />
<glyph unicode=")" horiz-adv-x="1044" d="M59 272v772h807v-772h-460v-178h579v-94h-674v272h-252zM154 367h157v159h95v-159h364v583h-616v-583z" />
<glyph unicode="*" horiz-adv-x="696" d="M43 43v991h295q111 0 190 -63q92 -70 93 -189q0 -172 -203 -221q96 -10 162 -74q73 -69 73 -178q0 -119 -88 -196q-80 -70 -188 -70h-47l26 -143h-63l-27 143h-223zM186 100h68l-12 82h65l12 -80q76 8 126.5 64.5t50.5 142.5q0 106 -54.5 166t-144.5 60h-111v-435z M186 588h140q61 0 100 55t39 139q0 190 -156 191h-123v-385z" />
<glyph unicode="+" horiz-adv-x="704" d="M43 563q0 199 70 326q82 152 241 151q160 0 242 -151q68 -125 68 -326q0 -457 -271 -477l25 -174h-64l-26 174q-152 6 -224 154q-61 123 -61 323zM203 563q0 -408 116 -438l-16 113h68l14 -113q119 30 119 438q0 430 -150 430q-152 0 -151 -430z" />
<glyph unicode="," horiz-adv-x="655" d="M49 4v1036h131l359 -788v788h59v-1036h-127l-358 807v-807h-64z" />
<glyph unicode="-" horiz-adv-x="745" d="M59 98v95h625v-95h-625zM59 586v94h265v266h94v-266h266v-94h-266v-264h-94v264h-265z" />
<glyph unicode="." horiz-adv-x="299" d="M45 88q0 41 30.5 71.5t71.5 30.5t72 -30.5t31 -71.5t-31 -70.5t-72 -29.5t-71.5 29.5t-30.5 70.5z" />
<glyph unicode="/" horiz-adv-x="704" d="M-29 -90l650 1253h112l-649 -1253h-113z" />
<glyph unicode="0" horiz-adv-x="761" d="M45 516q0 532 336 533q336 -1 336 -533t-336 -532t-336 532zM229 516q0 -221 15 -303q31 -176 137 -176t137 176q14 82 14 303q0 219 -14 301q-31 178 -137 178t-137 -178q-14 -82 -15 -301z" />
<glyph unicode="1" horiz-adv-x="761" d="M176 778v74q178 20 230 197h122v-1049h-172v850q-53 -63 -180 -72z" />
<glyph unicode="2" horiz-adv-x="761" d="M88 0v80q63 113 244 321q190 221 190 381q0 76 -45 139.5t-108 63.5q-80 0 -126 -65.5t-46 -151.5q0 -88 30 -158l-104 29q-23 49 -23 127q0 125 97 211q88 80 198 80q115 0 201 -72q94 -78 96 -203q2 -117 -94 -237q-100 -111 -203 -219q-66 -78 -143 -172h424v-154 h-588z" />
<glyph unicode="3" horiz-adv-x="761" d="M72 231q0 45 12 101l92 16q-20 -63 -20 -117q0 -90 57 -139q49 -43 125 -43q88 0 145 74q51 68 52 164q0 109 -82 166q-74 51 -191 51v74q246 0 246 225q0 74 -50 129t-120 55q-158 0 -158 -147q0 -39 23 -111l-92 16q-18 49 -19 95q0 94 82 155.5t197 61.5 q127 0 214 -68.5t87 -185.5q0 -195 -205 -262q238 -31 238 -254q0 -121 -100.5 -209t-233.5 -88q-113 0 -195 51q-104 63 -104 190z" />
<glyph unicode="4" horiz-adv-x="761" d="M66 233v91l415 720h127v-720h115v-91h-115v-233h-168v233h-374zM147 324h293v507z" />
<glyph unicode="5" horiz-adv-x="761" d="M45 233q0 23 10 60l95 31q-20 -51 -21 -91q0 -72 54.5 -127t123.5 -55q104 0 174 94q61 86 62 197q0 109 -57.5 179.5t-157.5 70.5q-57 0 -109.5 -33t-68.5 -78l-76 33l86 530h514l-29 -153h-432l-47 -291q78 78 229 78q150 0 238 -89t88 -247q0 -152 -116 -259.5 t-261 -107.5q-125 0 -212 74t-87 184z" />
<glyph unicode="6" horiz-adv-x="761" d="M70 481q0 238 73 387q94 188 287 189q74 0 139 -53q76 -61 76 -152q0 -16 -4 -61l-92 -21q12 41 12 82q0 61 -39 103t-92 42q-106 0 -149 -145q-45 -156 -45 -299q59 125 206 125q117 0 189 -100q65 -93 65 -228q0 -158 -78 -258q-86 -109 -239 -108q-309 0 -309 497z M233 348q0 -102 31 -190q41 -119 115 -119q82 0 127 117q35 90 35 194q0 80 -37 154q-43 90 -115 94q-70 4 -115 -80q-41 -76 -41 -170z" />
<glyph unicode="7" horiz-adv-x="761" d="M66 895l32 154h602v-127q-258 -444 -294 -922h-197q98 446 375 895h-518z" />
<glyph unicode="8" horiz-adv-x="761" d="M61 274q0 82 56 154q49 63 116 90q-59 31 -102 98.5t-43 147.5q0 127 87 209t208 82q100 0 174 -60q88 -68 88 -182q0 -74 -59 -141q-51 -59 -123 -88q82 -37 147 -103q90 -88 90 -182q0 -152 -96 -233q-88 -76 -227 -76q-125 0 -215 71q-100 80 -101 213zM143 281 q-2 -102 70 -172t164 -70q72 0 131 55t59 139q0 106 -108 175q-82 39 -164 77q-150 -66 -152 -204zM205 817q0 -156 215 -215q55 29 96 74q45 53 45 106q0 88 -50 148.5t-128 60.5q-72 0 -121 -43q-57 -49 -57 -131z" />
<glyph unicode="9" horiz-adv-x="761" d="M68 690q0 158 79 258q86 109 238 109q309 0 309 -498q0 -242 -69 -387q-90 -188 -287 -188q-86 0 -160 55q-80 61 -80 149q0 41 4 60l88 24q-10 -37 -10 -82q0 -61 48 -105t114 -44q96 0 147 166q39 125 39 280q-59 -125 -206 -125q-117 0 -189 101q-66 92 -65 227z M223 690q0 -80 37 -153q43 -90 115 -95q70 -4 114 80q41 76 41 170q0 102 -30 193q-41 119 -115 119q-82 0 -127 -119q-35 -90 -35 -195z" />
<glyph unicode=":" horiz-adv-x="290" d="M49 229q0 43 32 75t75 32t74.5 -32t31.5 -75t-31.5 -74.5t-74.5 -31.5t-75 31.5t-32 74.5zM49 815q0 43 32 75t75 32t74.5 -31t31.5 -76t-30.5 -75.5t-75.5 -30.5t-76 31.5t-31 74.5z" />
<glyph unicode=";" horiz-adv-x="1286" d="M49 612q0 246 174 420t420 174q248 0 422 -173t174 -421q0 -246 -174 -420t-422 -174q-244 0 -419 174.5t-175 419.5zM156 571q16 -160 141 -288q129 -135 301 -160v448h-442zM156 657h442v445q-190 -25 -309 -154q-111 -117 -133 -291zM684 123q184 23 311 151 q122 127 138 297h-449v-448zM684 657h449q-16 180 -135 300t-314 145v-445z" />
<glyph unicode="&#x3c;" horiz-adv-x="1343" d="M66 272q0 92 55 165t141 98q-55 98 -55 227q0 188 125 323q133 143 338 144q201 0 338 -144q131 -137 131 -323q0 -117 -58 -227q86 -25 141.5 -98t55.5 -165q0 -113 -80 -192.5t-192 -79.5q-113 0 -193 80t-80 192q0 98 62.5 174t156.5 95q70 102 70 219 q0 141 -101.5 245.5t-250.5 104.5q-141 0 -243.5 -105.5t-102.5 -244.5q0 -127 71 -219q92 -18 153.5 -94t61.5 -175q0 -115 -78.5 -193.5t-193.5 -78.5q-113 0 -192.5 80t-79.5 192zM178 272q0 -66 47 -112.5t113 -46.5t113 46.5t47 112.5t-47.5 113t-112.5 47 q-66 0 -113 -47t-47 -113zM846 272q0 -66 47 -112.5t113 -46.5t112.5 46.5t46.5 112.5t-47 113t-112 47q-66 0 -113 -47t-47 -113z" />
<glyph unicode="=" horiz-adv-x="704" d="M43 289v88h604v-88h-604zM43 553v90h604v-90h-604z" />
<glyph unicode="&#x3e;" horiz-adv-x="1343" d="M66 956q0 113 79.5 193t192.5 80q115 0 193.5 -79t78.5 -194q0 -98 -61.5 -173.5t-153.5 -94.5q-72 -92 -71 -219q0 -139 102 -244.5t244 -105.5q150 0 251 104.5t101 245.5q0 117 -70 219q-94 18 -156.5 94t-62.5 174q0 115 80 194t193 79t192.5 -80t79.5 -193 q0 -92 -55.5 -164.5t-141.5 -97.5q57 -111 58 -227q0 -186 -131 -324q-137 -143 -338 -143q-205 0 -338 143q-125 135 -125 324q0 129 55 227q-86 25 -141 97.5t-55 164.5zM178 956q0 -66 47 -112.5t113 -46.5t113 46.5t47 112.5t-47.5 113t-112.5 47q-66 0 -113 -47 t-47 -113zM846 956q0 -66 47 -112.5t113 -46.5t112.5 46.5t46.5 112.5t-47 113t-112 47q-66 0 -113 -47t-47 -113z" />
<glyph unicode="?" horiz-adv-x="1325" d="M68 623q0 246 175 421t419 175q246 0 420.5 -175t174.5 -421q0 -244 -175 -418t-420 -174q-244 0 -419 174t-175 418zM176 618q0 -172 115 -313l309 311l-315 316q-109 -137 -109 -314zM344 993l318 -317l315 317q-141 117 -311 117t-322 -117zM352 246 q125 -106 310 -107q172 1 307 107l-307 307zM723 616l309 -311q117 147 117 313q0 178 -111 314z" />
<glyph unicode="@" horiz-adv-x="1411" d="M68 590v108h92q18 193 157.5 332t333.5 162v90h109v-90q195 -23 333 -162t158 -332h90v-108h-90q-23 -193 -161 -332t-330 -158v-92h-109v92q-195 18 -333 157.5t-158 332.5h-92zM268 590q20 -150 126.5 -256.5t256.5 -124.5v381h-383zM268 698h383v383 q-150 -16 -257 -123.5t-126 -259.5zM760 209q150 18 256.5 124.5t124.5 256.5h-381v-381zM760 698h383q-18 152 -126 259.5t-257 123.5v-383z" />
<glyph unicode="A" horiz-adv-x="1802" d="M66 1124q0 150 112 246q106 88 248 88q182 0 315 -125q125 -121 154 -303h20q33 184 162 303q137 125 330 125q131 0 229.5 -96.5t98.5 -237.5q0 -139 -60.5 -238.5t-161.5 -131.5l-110 149q109 14 192.5 79t83.5 142q0 102 -83 169t-191 67q-162 0 -277 -154 q-106 -139 -106 -307v-899h-229v899q0 172 -103 311q-109 150 -264 150q-123 0 -207 -57q-96 -66 -96 -179q0 -84 84 -151.5t186 -81.5l-84 -137q-104 23 -173.5 126t-69.5 244z" />
<glyph unicode="B" horiz-adv-x="1138" d="M55 496q0 168 117 311q106 129 250 174q-311 104 -350 434q82 -186 252 -278q127 -72 264 -72q313 0 444 324q-35 -152 -131 -267q-102 -121 -223 -135q154 -29 270 -160q129 -145 129 -335q0 -211 -148.5 -360.5t-361.5 -149.5q-207 0 -356 145q-156 150 -156 369z M207 610q0 -215 144.5 -395t310.5 -180q96 0 176 92t80 223q0 233 -140.5 410.5t-316.5 177.5q-102 0 -178 -96.5t-76 -231.5z" />
<glyph unicode="C" horiz-adv-x="1329" d="M55 0v10q53 0 93 33t40 88v1159q0 63 -37.5 102.5t-95.5 39.5v10h1215v-8q-53 0 -89 -42t-36 -102v-1159q0 -53 36 -87t89 -34v-10h-1215zM424 131q0 -108 100 -108h2h267q51 0 83.5 29.5t32.5 78.5v1159q0 115 -116 115h-267q-102 0 -102 -115v-1159z" />
<glyph unicode="D" horiz-adv-x="1818" d="M72 477q0 162 137 266q125 94 287 95q166 0 262 -84q84 -74 84 -181q0 -113 -59.5 -193.5t-153.5 -98.5q125 74 125 213q0 121 -73 185t-185 64q-25 0 -52 -4q-72 -8 -131 -71.5t-59 -145.5q0 -362 594 -362q205 0 409 53q238 63 390 182q-98 -188 -344 -303 q-223 -104 -455 -104q-776 0 -776 489zM174 1044q98 188 342 302q219 104 451 104q780 0 780 -487q0 -168 -137 -271q-123 -92 -285 -92q-166 0 -262 84q-86 74 -86 180q0 113 59.5 193t151.5 98q-121 -72 -121 -209q0 -121 76 -188q68 -61 180 -62q25 0 51 4 q72 10 131.5 72t59.5 143q0 186 -170 281q-152 84 -422 84q-205 0 -410 -53q-238 -63 -389 -183z" />
<glyph unicode="E" horiz-adv-x="1585" d="M78 686q0 121 123 164q-59 -43 -60 -154q0 -68 48.5 -112.5t127.5 -44.5q193 0 193 297q0 51 -49 301q-6 29 -6 55q0 125 116 197q104 63 260 63q545 0 545 -362q0 -123 -94 -295q-86 -143 -174 -285q-94 -160 -94 -248t70.5 -147.5t166.5 -59.5q92 0 154 68q47 53 47 98 q0 47 -47 70q-39 -55 -92 -55q-33 0 -64.5 28.5t-31.5 73.5q0 39 28.5 66.5t71.5 27.5q82 0 139 -53.5t57 -116.5q0 -137 -102 -209q-91 -67 -240 -67h-4q-147 0 -249.5 76.5t-102.5 199.5q0 111 96 268q88 139 179 279q96 172 96 317q0 283 -295 283q-106 0 -172 -65.5 t-66 -161.5q0 -29 6 -56q41 -197 41 -266q0 -76 -26 -143q-94 -242 -357 -242q-129 0 -190 72q-49 57 -49 139z" />
<glyph unicode="F" horiz-adv-x="1671" d="M70 1354q37 96 198 96q86 0 125 -26.5t68 -100.5q66 127 254 127q184 0 229 -127q41 74 96 100q49 27 140 27q98 0 168 -45q82 -53 82 -154v-94q82 -2 126 -88q41 -78 41 -192q0 -178 -84 -351q-27 -51 -145 -231q122 -178 231 -295h-65q-106 98 -195 252 q-106 -174 -194 -252h-111q131 131 242 334q-188 291 -189 543q0 113 41 190.5t117 87.5v96q0 55 -47 89t-111 34q-61 0 -107 -32.5t-46 -90.5v-917h-197v917q0 72 -28.5 97.5t-106.5 25.5q-145 0 -145 -123v-917h-197v917q0 133 -113 133q-47 0 -77 -30zM1139 877 q0 -207 172 -492q84 164 106 244q33 103 33 248q0 100 -37 161q-43 68 -119 68q-74 0 -116 -76q-39 -66 -39 -153z" />
<glyph unicode="G" horiz-adv-x="1339" d="M70 0v145h1196v-145h-1196zM70 299v147h204q-204 138 -204 442q0 257 168 412q164 150 424 150q258 0 428 -150q176 -158 176 -409q0 -291 -226 -445h226v-147h-465q125 74 196 248q66 158 66 344q0 184 -107 338q-119 170 -294 170q-168 0 -285 -170 q-104 -156 -105 -338q0 -201 68 -354q72 -164 203 -238h-473z" />
<glyph unicode="H" d="M80 1352q49 98 190 98q170 0 191 -127h20q33 127 234 127q205 0 225 -127h21q29 127 229 127q240 0 240 -207v-872q0 -145 67.5 -234.5t169.5 -89.5q217 0 217 139q0 39 -24 84l-91 -43v303l211 -202l-86 -41q23 -68 23 -101q0 -82 -53 -135q-71 -67 -215 -67h-4 q-416 0 -416 387v872q0 133 -146 133q-143 0 -143 -133l2 -911h-199v911q0 133 -141 133t-141 -133v-911h-199v909q0 135 -112 135q-41 0 -70 -24z" />
<glyph unicode="I" horiz-adv-x="1470" d="M72 141l397 400q-70 76 -172 116l35 80q104 -39 194 -131l686 680h-161l344 156l-142 -357v160l-622 -735q92 -123 114 -211l-75 -35q-25 88 -103 172l-368 -436z" />
<glyph unicode="J" horiz-adv-x="1593" d="M55 1153q205 66 305 299q213 -188 443 -188q139 0 373 63q198 55 362 125q-612 -391 -860 -694q125 47 235 47q201 0 330 -111q133 -117 133 -309q0 -180 -155 -295q-146 -110 -355 -110h-4q-522 0 -524 446q0 76 22 141q-76 -43 -147 -116q-88 -92 -117 -187 q10 133 107 258q84 106 186 154q47 121 223 268q145 121 330 221q-82 -35 -170 -35q-240 0 -391 148q-94 -125 -326 -125zM551 426q0 -147 72 -256q86 -133 239 -133q139 0 228.5 93t89.5 261q0 129 -87 230.5t-212 101.5q-82 0 -260 -57q-70 -150 -70 -240z" />
<glyph unicode="K" horiz-adv-x="1761" d="M66 455q16 133 64 219t114 86q88 0 170 -176q109 -233 186 -371q39 -72 59 -72q23 0 54 72q66 147 194 442q49 115 142 115q102 0 163.5 -115.5t253.5 -443.5q39 -66 74 -66q51 1 117 226q-14 -387 -170 -387q-94 0 -164 122q-96 164 -250 435q-33 63 -74 63 q-39 0 -67 -63q-72 -164 -201 -455q-47 -102 -129 -102q-80 0 -125 88q-4 8 -231 469q-29 59 -64 59q-51 0 -116 -145zM106 1124q14 135 62.5 224.5t114.5 89.5q88 0 166 -172q104 -227 186 -373q41 -72 59 -72q20 0 51 72q68 147 197 442q49 115 145 115t160 -115 q98 -178 254 -444q35 -59 70 -60q62 0 121 195q-23 -358 -176 -358q-94 0 -160 118q-96 164 -248 437q-33 61 -72 61q-41 0 -67 -61l-205 -459q-45 -98 -127 -98q-80 0 -126 89t-228 468q-27 55 -62 55q-49 0 -115 -154z" />
<glyph unicode="L" horiz-adv-x="1212" d="M53 -4q131 121 183 299q37 135 40 377q-74 -12 -194 -56q2 12 14 86q109 51 180 60q-12 442 -223 680q182 -55 305 -241.5t138 -416.5q70 8 106 9q66 0 117 -9q14 231 135 414q123 190 307 244q-211 -238 -221 -680q78 -10 178 -51q14 -59 21 -105q-94 49 -199 66 q2 -231 37 -365q49 -188 184 -311q-182 57 -306 253.5t-136 442.5q-45 6 -117 6q-39 0 -106 -6q-10 -244 -135 -441.5t-308 -254.5z" />
<glyph unicode="M" horiz-adv-x="811" d="M57 41v838h246q289 0 289 -250q0 -127 -84 -187q-61 -45 -150 -45l177 -178l145 180l41 -39l-139 -190l176 -174l-80 -121l-160 211l-151 -207l-66 51l174 215l-186 246h-82v-350h-150zM207 449q229 0 229 178q0 86 -48 136t-130 50h-51v-364z" />
<glyph unicode="N" horiz-adv-x="626" d="M57 41v838h248q117 0 191 -52q92 -66 92 -198q0 -113 -74 -176q-66 -55 -160 -56l252 -356h-178l-145 350h-76v-350h-150zM207 449q121 0 162 20q67 34 67 145q0 199 -155 199h-74v-364z" />
<glyph unicode="O" horiz-adv-x="770" d="M49 813v66h668v-66h-256v-772h-160v772h-252z" />
<glyph unicode="P" horiz-adv-x="634" d="M53 41v838h238q133 0 211 -58q88 -65 88 -192q0 -123 -90 -185q-80 -53 -209 -53h-86v-350h-152zM205 449h74q74 0 113.5 51t39.5 129q0 80 -40 132t-113 52h-74v-364z" />
<glyph unicode="Q" horiz-adv-x="1634" d="M74 717q0 307 217 525t526 218q307 0 524.5 -218t217.5 -525t-217.5 -524.5t-524.5 -217.5q-309 0 -526 217.5t-217 524.5zM330 971q0 -285 200 -582q207 -305 416 -305q141 0 248 98q117 109 117 277q0 270 -205 579q-210 316 -425 316h-11q-133 -4 -236 -113 q-104 -115 -104 -270zM686 713q0 51 37 87t90 36q51 0 87 -37t36 -90q0 -51 -37 -87t-88 -36q-53 0 -89 38t-36 89z" />
<glyph unicode="R" horiz-adv-x="1556" d="M80 1034q74 184 250 303q184 125 409 125q309 0 526.5 -220t217.5 -523q0 -309 -221.5 -526.5t-522.5 -217.5q-135 0 -231 37q143 70 222 201t79 301q0 231 -165 395t-396 164q-74 0 -168 -39zM147 1092q115 61 259 61q242 0 411.5 -170t169.5 -412q0 -178 -106.5 -328.5 t-272.5 -215.5h19q266 0 456.5 191.5t190.5 459.5q0 266 -189.5 455.5t-457.5 189.5q-285 0 -480 -231z" />
<glyph unicode="S" horiz-adv-x="833" d="M55 1450q106 -264 412 -266q119 0 211 82t102 184q0 -94 -57 -188q-63 -104 -166 -144q94 -37 160 -125q69 -94 69 -207q0 -123 -75.5 -220t-194.5 -126v-207h172v-53h-172v-180h-166v180h-168v53h168v207q-111 16 -192.5 117.5t-81.5 226.5q0 225 217 330 q-199 51 -238 336zM209 881q0 -141 95 -263t204 -122q151 0 151 213q0 145 -94 261.5t-207 116.5q-66 0 -107.5 -57t-41.5 -149z" />
<glyph unicode="T" horiz-adv-x="983" d="M35 989q0 184 132 321.5t316 137.5q195 0 331 -132.5t136 -322.5q0 -168 -108.5 -298t-270.5 -158v-238h207v-55h-207v-244h-186v244h-203v55h203v246q-150 33 -250 159.5t-100 284.5zM209 1102q0 -180 106 -332q113 -162 265 -162q94 0 148 79t54 212q0 176 -123 324 q-119 139 -247 139q-86 0 -144.5 -76t-58.5 -184z" />
<glyph unicode="U" horiz-adv-x="1773" d="M70 520q0 219 155.5 374t374.5 155q225 0 385 -166l324 323h-289l571 244l-233 -590v291l-326 -326q96 -135 96 -305q0 -219 -154.5 -374.5t-373.5 -155.5t-374.5 155.5t-155.5 374.5zM274 676q0 -221 133.5 -410.5t288.5 -189.5q104 0 176 63q82 76 82 211 q0 203 -137 402q-142 206 -309 206h-2q-96 0 -164 -81.5t-68 -200.5z" />
<glyph unicode="V" horiz-adv-x="1105" d="M59 299q184 207 367 414q219 258 219 399q0 88 -66.5 147.5t-144.5 59.5q-225 0 -328 -201q20 160 136 250q104 82 254 82q141 0 237 -77t96 -210t-98 -276q-74 -106 -237 -258q-145 -133 -289 -267h450v183l154 184v-367h248v-63h-248v-299h-154v299h-596z" />
<glyph unicode="W" horiz-adv-x="1142" d="M55 1204v56h291v182h201v-182h457v-56h-457v-448q23 92 104.5 161.5t167.5 69.5q266 0 266 -315q0 -172 -159 -340q-139 -150 -353 -250q-205 -96 -360 -96h-12q285 88 495 290q219 209 219 410q0 117 -26.5 167t-89.5 50q-188 0 -252 -293h-201v594h-291z" />
<glyph unicode="X" horiz-adv-x="1003" d="M57 846q78 147 78 289q0 141 -78 292h109q74 -129 88 -266h176v281h152v-281h166q14 129 98 266h104q-82 -150 -82 -290q0 -141 82 -291h-104q-78 131 -98 264h-166v-340q135 -29 224 -139.5t89 -251.5q0 -162 -118 -275.5t-277 -113.5q-164 0 -280 116 q-114 114 -114 272v5q2 152 82 254q88 113 242 133v340h-176q-12 -125 -88 -264h-109zM260 479q0 -152 92 -276q98 -133 228 -133q155 0 155 227q0 152 -97 274.5t-218 122.5q-72 0 -116 -60.5t-44 -154.5z" />
<glyph unicode="Y" horiz-adv-x="1318" d="M55 1229l176 217l175 -219l-101 26v-397q0 -145 111 -145h162v542l-95 -26l168 223l180 -223l-104 26v-542h160q113 0 112 145v397l-100 -26l172 223l180 -221l-104 24v-397q0 -223 -207 -223h-213v-314h221v-67h-221v-252h-149v252h-220v67h220v314h-216 q-207 0 -206 223v397z" />
<glyph unicode="Z" horiz-adv-x="1058" d="M51 997l66 43q12 -141 134 -253.5t273 -112.5q156 0 281 110.5t129 243.5l74 -31q-8 -145 -144 -274q-127 -123 -250 -135v-338h197v-55h-201v-195h-157v195h-199v55h199v338q-139 20 -258 131q-133 121 -144 278zM186 1110q0 137 101.5 238.5t238.5 101.5 q141 0 242.5 -101.5t101.5 -238.5q0 -141 -101 -243.5t-243 -102.5q-139 0 -239.5 102.5t-100.5 243.5zM317 1182q0 -129 91.5 -242t185.5 -113q66 0 103.5 56.5t37.5 146.5q0 129 -94 240q-92 104 -182 104q-63 0 -102.5 -55t-39.5 -137z" />
<glyph unicode="[" horiz-adv-x="1589" d="M51 246q0 57 41 99t107 42q61 0 143 -41q98 119 125 182q63 154 63 459q0 190 145.5 326.5t360.5 136.5q199 0 306.5 -90t107.5 -256q0 -184 -184 -293q-168 -98 -424 -98q446 86 446 374q0 276 -254 277q-145 0 -237 -119q-84 -111 -84 -258q0 -238 -97 -420 q-59 -113 -192 -250q170 -66 338 -133q203 -76 364 -73q160 2 203 12q117 25 195 123q-80 -252 -398 -252q-221 0 -428 90q-172 80 -342 162q-111 -125 -184 -125q-43 0 -82 38t-39 87zM123 260q-4 -47 47 -53q41 -5 109 63q-61 33 -107 35q-45 6 -49 -45z" />
<glyph unicode="\" horiz-adv-x="704" d="M-31 1165h113l653 -1251h-112z" />
<glyph unicode="]" horiz-adv-x="999" d="M66 55v975h92v-870h784v-105h-876z" />
<glyph unicode="^" horiz-adv-x="495" d="M57 952q0 84 58.5 141.5t140.5 57.5q84 0 141.5 -57.5t57.5 -141.5q0 -82 -57.5 -140t-141.5 -58q-82 0 -140.5 58t-58.5 140zM115 952q0 -57 42 -99t99 -42q59 0 100 42t41 99q0 59 -41 100.5t-100 41.5q-57 0 -99 -41t-42 -101z" />
<glyph unicode="_" horiz-adv-x="1208" d="M-6 -180h1223v-111h-1223v111z" />
<glyph unicode="`" horiz-adv-x="266" d="M66 801l40 311h89l-82 -311h-47z" />
<glyph unicode="a" horiz-adv-x="1318" d="M23 0l192 1116h100l193 -1116h-133l-45 283h-209l-47 -283h-51zM131 354h184l-96 559zM532 217l43 14q0 -198 116 -198h1q84 0 84 135q0 86 -57 151q-53 53 -109 107q-57 74 -57 184q0 104 40 165t103 61q68 0 108 -61.5t40 -156.5l-41 -30q0 78 -25 133q-29 67 -80 67 h-2q-82 0 -82 -135q0 -88 64 -147q57 -49 117 -100q63 -70 63 -189q0 -100 -55 -164q-47 -57 -107 -57q-164 0 -164 221zM909 385q0 186 54 309q61 139 174 140q68 0 107.5 -61.5t39.5 -156.5l-41 -30q0 78 -24 133q-29 65 -80 65h-2q-121 0 -121 -399q0 -342 119 -342 q121 0 120 188l43 -14q0 -96 -45 -156q-46 -65 -129 -65h-2q-213 0 -213 389z" />
<glyph unicode="b" horiz-adv-x="1228" d="M20 0v1102h142l145 -807l146 807h137v-1102h-137v860l-146 -860h-80l-149 850v-850h-58zM682 518q0 248 76 408q84 180 239 180q88 0 144.5 -78t56.5 -201l-47 -34q0 247 -153 247h-1q-109 0 -147 -190q-20 -106 -21 -324q0 -471 156 -471q172 0 172 299l47 -28 q0 -158 -60.5 -245t-172.5 -87q-147 0 -223 153q-66 135 -66 371z" />
<glyph unicode="c" horiz-adv-x="819" d="M25 0v1087h129v-1087h-129zM231 520q0 240 78 402q86 180 238 180q205 0 219 -316l-74 -49v60q0 96 -33 161q-35 76 -100 76q-113 0 -162 -186q-35 -131 -35 -322q0 -172 37 -297q49 -170 154 -170q78 0 123 97q43 88 43 209v55l67 -23v-55q0 -156 -81 -254 q-76 -88 -177 -88q-147 0 -225 150q-72 137 -72 370z" />
<glyph unicode="d" horiz-adv-x="1966" d="M51 645q0 385 271.5 657.5t658.5 272.5t658.5 -271.5t271.5 -658.5t-271.5 -658.5t-658.5 -271.5t-658.5 272.5t-271.5 657.5zM63 645q0 -379 268.5 -648t649.5 -269t649 268t268 649t-268 649.5t-649 268.5t-649.5 -269.5t-268.5 -648.5zM205 645q0 322 227 549t549 227 t549 -227t227 -549t-227 -549t-549 -227t-549 227.5t-227 548.5zM217 637q4 -199 98 -367l433 248q-27 51 -31 119h-500zM217 653h500q2 60 33 119l-433 248q-96 -166 -100 -367zM322 258q100 -168 268 -268l248 430q-53 37 -84 88zM324 1032q117 -66 432 -250q39 59 86 86 l-250 435q-166 -98 -268 -271zM600 -16q168 -99 375 -103v500q-68 0 -127 33zM604 1309l250 -435q53 33 121 35v500q-205 -4 -371 -100zM729 645q0 -104 74 -178t178 -74t178 74t74 178t-74 178t-178 74t-178 -73.5t-74 -178.5zM987 -119q201 3 371 101l-248 432 q-59 -31 -123 -33v-500zM987 909q63 0 117 -28l248 432q-166 96 -365 96v-500zM1114 877q53 -33 92 -93l432 250q-100 168 -276 271zM1120 420l248 -432q168 96 272 272l-434 248q-27 -49 -86 -88zM1212 518l435 -246q94 162 98 365h-500q-2 -59 -33 -119zM1212 774 q29 -55 33 -121h500q-4 203 -100 369z" />
<glyph unicode="e" horiz-adv-x="2777" d="M41 317q0 135 184 277q176 135 461 229q31 229 217 404q201 186 469 186q322 0 543 -260q160 31 313 31q219 0 355 -47q161 -60 161 -179q0 -176 -290 -368q-162 -106 -488 -252q-92 -143 -254 -230.5t-342 -87.5q-156 0 -264 60q-279 -43 -477 -43q-248 0 -414 76 q-174 80 -174 204zM66 317q0 -111 162.5 -183.5t400.5 -72.5q162 0 475 43q391 53 872 267q744 327 744 587q0 109 -166 162q-129 41 -326 41q-184 0 -299 -26q25 -33 35 -54q98 0 178 -22q127 -37 127 -117q0 -121 -246 -266q-254 -152 -604 -246q-295 -80 -581 -102 q-27 -2 -58 -2q-125 0 -219 28q-111 37 -110 101q0 72 79 145q63 59 150 96q0 59 4 107q-268 -90 -440 -223q-178 -137 -178 -263zM475 455q0 -47 103 -78q94 -29 217 -29q-113 164 -113 328q-205 -100 -207 -221zM700 721q0 -199 119 -373q297 20 606 107q357 98 623 260 q0 274 -199.5 476t-476.5 202q-276 0 -474 -202t-198 -470zM1141 84q90 -41 231 -41q162 0 313.5 77t243.5 202q-414 -180 -788 -238zM1974 1065q94 -160 94 -336q181 137 181 213q0 63 -109 96q-74 25 -166 27z" />
<glyph unicode="f" horiz-adv-x="1277" d="M20 750v4l539 41l-59 92l98 -47l39 696h6l41 -692l109 67l-66 -116l530 -41v-4l-528 -37l90 -142l-129 99l-2 -39l-45 -811h-6l-39 852l-170 -125l129 166l-80 6zM158 752l422 -29l-93 -119l123 90l2 -63l29 -629l39 690l96 -74l-67 105l411 29l-411 32l53 95l-88 -58 l-33 559l-31 -559l-80 37l50 -74z" />
<glyph unicode="g" horiz-adv-x="1277" d="M20 750v4l537 41l-57 92l100 -47l39 696h4l41 -690l109 65l-66 -116l530 -41v-4l-528 -37l90 -142l-129 99l-47 -850h-6l-37 854l-170 -127l127 166z" />
<glyph unicode="h" horiz-adv-x="1646" d="M37 750l455 38l-365 281l434 -145l-231 395l354 -305l-74 450l189 -426l90 469l29 -469l245 385l-135 -438l397 238l-292 -344l446 75l-401 -217l438 -112l-455 -35l363 -262l-432 139l225 -391l-330 305l74 -440l-199 405l-104 -440l-27 450l-258 -366l156 420 l-387 -248l286 352l-444 -84l405 225z" />
<glyph unicode="i" horiz-adv-x="1482" d="M53 657q0 309 205 512q199 199 487 199q227 0 398 -127q-98 35 -197 35q-254 0 -430 -166q-184 -176 -184 -444q0 -246 170 -421t424 -175q80 0 102 4q68 12 119 32q-61 -43 -119 -67q-135 -59 -264 -59q-283 0 -492 192q-219 199 -219 485zM905 774h197l59 176l66 -176 h200l-155 -125l65 -192l-176 110l-170 -123l66 205z" />
<glyph unicode="j" horiz-adv-x="1597" d="M31 709q0 317 225 543.5t543 226.5q319 0 544.5 -225.5t225.5 -544.5q0 -317 -225.5 -542.5t-544.5 -225.5q-317 0 -542.5 225t-225.5 543zM317 453h228v-226h530v226h223v503h-223v228h-530v-228h-228v-503z" />
<glyph unicode="k" horiz-adv-x="1611" d="M41 741q0 317 223 540.5t539 223.5q317 0 542.5 -225.5t225.5 -542.5q0 -315 -225.5 -538.5t-542.5 -223.5q-315 0 -538.5 224.5t-223.5 541.5zM90 741q0 -287 214 -496.5t499 -219.5q-145 14 -248 110q-111 102 -111 248q0 145 101.5 249.5t255 104.5t258 101.5 t104.5 259.5q0 150 -108.5 254t-251.5 104q-291 0 -502 -210t-211 -505zM702 1098q0 41 30 69.5t71 28.5t70.5 -28.5t29.5 -69.5t-29.5 -71t-70.5 -30t-71 30t-30 71zM705 389q0 -39 28.5 -67.5t69.5 -28.5t70.5 28.5t29.5 67.5q0 41 -29.5 69.5t-70.5 28.5 q-39 0 -68.5 -28.5t-29.5 -69.5z" />
<glyph unicode="l" horiz-adv-x="1085" d="M57 375v336h570l-39 225l456 -401l-456 -394l39 234h-570z" />
<glyph unicode="m" horiz-adv-x="1085" d="M47 541l457 391l-37 -236h571v-334h-571l37 -227z" />
<glyph unicode="n" />
<glyph unicode="o" horiz-adv-x="1183" d="M61 500q0 168 118 285.5t286 117.5q135 0 237 -74l154 154l-98 98l71 70l99 -98l108 108l90 -92l-106 -106l94 -95l-72 -71l-94 94l-157 -158q78 -106 77 -233q0 -168 -118.5 -286t-284.5 -118q-168 0 -286 118t-118 286zM188 500q0 -113 81 -194t196 -81t195.5 81 t80.5 194q0 115 -80.5 195.5t-195.5 80.5q-113 0 -195 -81t-82 -195z" />
<glyph unicode="p" />
<glyph unicode="q" />
<glyph unicode="r" />
<glyph unicode="s" />
<glyph unicode="t" horiz-adv-x="948" d="M49 274q0 109 101 185q94 74 245 92v891h152v-246l227 229h64l-240 -239l264 -264h-108l-207 208v-579q156 -18 253 -94.5t97 -182.5q0 -123 -123 -203.5t-303 -80.5q-174 0 -298 81t-124 203zM197 336q0 -111 108.5 -201t249.5 -90q80 0 136.5 47t56.5 119 q0 106 -113 195.5t-246 89.5q-82 0 -137 -46.5t-55 -113.5z" />
<glyph unicode="u" />
<glyph unicode="v" />
<glyph unicode="w" />
<glyph unicode="x" />
<glyph unicode="y" />
<glyph unicode="z" />
<glyph unicode="{" />
<glyph unicode="|" />
<glyph unicode="}" />
<glyph unicode="~" />
<glyph unicode="&#xa0;" />
<glyph unicode="&#xa1;" />
<glyph unicode="&#xa2;" />
<glyph unicode="&#xa3;" />
<glyph unicode="&#xa4;" />
<glyph unicode="&#xa5;" />
<glyph unicode="&#xa6;" />
<glyph unicode="&#xa7;" />
<glyph unicode="&#xa8;" />
<glyph unicode="&#xa9;" />
<glyph unicode="&#xaa;" />
<glyph unicode="&#xab;" />
<glyph unicode="&#xac;" />
<glyph unicode="&#xad;" horiz-adv-x="745" d="M59 98v95h625v-95h-625zM59 586v94h265v266h94v-266h266v-94h-266v-264h-94v264h-265z" />
<glyph unicode="&#xae;" />
<glyph unicode="&#xaf;" />
<glyph unicode="&#xb0;" />
<glyph unicode="&#xb1;" />
<glyph unicode="&#xb2;" />
<glyph unicode="&#xb3;" />
<glyph unicode="&#xb4;" />
<glyph unicode="&#xb5;" />
<glyph unicode="&#xb6;" />
<glyph unicode="&#xb7;" />
<glyph unicode="&#xb8;" />
<glyph unicode="&#xb9;" />
<glyph unicode="&#xba;" />
<glyph unicode="&#xbb;" />
<glyph unicode="&#xbc;" />
<glyph unicode="&#xbd;" />
<glyph unicode="&#xbe;" />
<glyph unicode="&#xbf;" />
<glyph unicode="&#xc0;" />
<glyph unicode="&#xc1;" />
<glyph unicode="&#xc2;" />
<glyph unicode="&#xc3;" />
<glyph unicode="&#xc4;" />
<glyph unicode="&#xc5;" />
<glyph unicode="&#xc6;" />
<glyph unicode="&#xc7;" />
<glyph unicode="&#xc8;" />
<glyph unicode="&#xc9;" />
<glyph unicode="&#xca;" />
<glyph unicode="&#xcb;" />
<glyph unicode="&#xcc;" />
<glyph unicode="&#xcd;" />
<glyph unicode="&#xce;" />
<glyph unicode="&#xcf;" />
<glyph unicode="&#xd0;" />
<glyph unicode="&#xd1;" />
<glyph unicode="&#xd2;" />
<glyph unicode="&#xd3;" />
<glyph unicode="&#xd4;" />
<glyph unicode="&#xd5;" />
<glyph unicode="&#xd6;" />
<glyph unicode="&#xd7;" />
<glyph unicode="&#xd8;" />
<glyph unicode="&#xd9;" />
<glyph unicode="&#xda;" />
<glyph unicode="&#xdb;" />
<glyph unicode="&#xdc;" />
<glyph unicode="&#xdd;" />
<glyph unicode="&#xde;" />
<glyph unicode="&#xdf;" />
<glyph unicode="&#xe0;" />
<glyph unicode="&#xe1;" />
<glyph unicode="&#xe2;" />
<glyph unicode="&#xe3;" />
<glyph unicode="&#xe4;" />
<glyph unicode="&#xe5;" />
<glyph unicode="&#xe6;" />
<glyph unicode="&#xe7;" />
<glyph unicode="&#xe8;" />
<glyph unicode="&#xe9;" />
<glyph unicode="&#xea;" />
<glyph unicode="&#xeb;" />
<glyph unicode="&#xec;" />
<glyph unicode="&#xed;" />
<glyph unicode="&#xee;" />
<glyph unicode="&#xef;" />
<glyph unicode="&#xf0;" />
<glyph unicode="&#xf1;" />
<glyph unicode="&#xf2;" />
<glyph unicode="&#xf3;" />
<glyph unicode="&#xf4;" />
<glyph unicode="&#xf5;" />
<glyph unicode="&#xf6;" />
<glyph unicode="&#xf7;" />
<glyph unicode="&#xf8;" />
<glyph unicode="&#xf9;" />
<glyph unicode="&#xfa;" />
<glyph unicode="&#xfb;" />
<glyph unicode="&#xfc;" />
<glyph unicode="&#xfd;" />
<glyph unicode="&#xfe;" />
<glyph unicode="&#xff;" />
<glyph unicode="&#x152;" />
<glyph unicode="&#x153;" />
<glyph unicode="&#x178;" />
<glyph unicode="&#x2c6;" />
<glyph unicode="&#x2dc;" />
<glyph unicode="&#x2000;" horiz-adv-x="787" />
<glyph unicode="&#x2001;" horiz-adv-x="1575" />
<glyph unicode="&#x2002;" horiz-adv-x="787" />
<glyph unicode="&#x2003;" horiz-adv-x="1575" />
<glyph unicode="&#x2004;" horiz-adv-x="525" />
<glyph unicode="&#x2005;" horiz-adv-x="393" />
<glyph unicode="&#x2006;" horiz-adv-x="262" />
<glyph unicode="&#x2007;" horiz-adv-x="262" />
<glyph unicode="&#x2008;" horiz-adv-x="196" />
<glyph unicode="&#x2009;" horiz-adv-x="315" />
<glyph unicode="&#x200a;" horiz-adv-x="87" />
<glyph unicode="&#x2010;" horiz-adv-x="745" d="M59 98v95h625v-95h-625zM59 586v94h265v266h94v-266h266v-94h-266v-264h-94v264h-265z" />
<glyph unicode="&#x2011;" horiz-adv-x="745" d="M59 98v95h625v-95h-625zM59 586v94h265v266h94v-266h266v-94h-266v-264h-94v264h-265z" />
<glyph unicode="&#x2012;" horiz-adv-x="745" d="M59 98v95h625v-95h-625zM59 586v94h265v266h94v-266h266v-94h-266v-264h-94v264h-265z" />
<glyph unicode="&#x2013;" />
<glyph unicode="&#x2014;" />
<glyph unicode="&#x2018;" />
<glyph unicode="&#x2019;" />
<glyph unicode="&#x201a;" horiz-adv-x="1347" d="M53 696q0 295 209 503t504 208q313 0 534 -262q-119 55 -266 55q-246 0 -430 -180q-193 -188 -192 -465q0 -186 111.5 -345t283.5 -230h-41q-293 0 -503 211.5t-210 504.5z" />
<glyph unicode="&#x201c;" />
<glyph unicode="&#x201d;" />
<glyph unicode="&#x201e;" />
<glyph unicode="&#x2022;" />
<glyph unicode="&#x2026;" />
<glyph unicode="&#x202f;" horiz-adv-x="315" />
<glyph unicode="&#x2039;" />
<glyph unicode="&#x203a;" />
<glyph unicode="&#x205f;" horiz-adv-x="393" />
<glyph unicode="&#x2122;" />
<glyph unicode="&#x25fc;" horiz-adv-x="1024" d="M0 0z" />
</font>
</defs>
</svg>
